<svg xmlns="http://www.w3.org/2000/svg" width="26.417" height="26.417" viewBox="0 0 26.417 26.417">
  <path id="icon-facebook-nav" d="M23.587,2.25H2.83A2.83,2.83,0,0,0,0,5.08V25.837a2.83,2.83,0,0,0,2.83,2.83h8.093V19.686H7.209V15.458h3.715V12.237c0-3.665,2.182-5.689,5.523-5.689a22.505,22.505,0,0,1,3.274.285v3.6H17.877a2.114,2.114,0,0,0-2.383,2.284v2.745h4.056L18.9,19.686H15.493v8.981h8.093a2.83,2.83,0,0,0,2.83-2.83V5.08A2.83,2.83,0,0,0,23.587,2.25Z" transform="translate(0 -2.25)" fill="#1b1b1b"/>
</svg>
