<svg xmlns="http://www.w3.org/2000/svg" width="27.3" height="27" viewBox="0 0 27.3 27">
  <g id="icon-menu-nav" transform="translate(-1505 -12)">
    <rect id="Rectangle_17" data-name="Rectangle 17" width="27" height="27" transform="translate(1505 12)" fill="none"/>
    <g id="icon-menu-nav-2" data-name="icon-menu-nav" transform="translate(1500.8 7)">
      <path id="Path_9" data-name="Path 9" d="M30.375,12.375H5.625A1.128,1.128,0,0,1,4.5,11.25h0a1.128,1.128,0,0,1,1.125-1.125h24.75A1.128,1.128,0,0,1,31.5,11.25h0A1.128,1.128,0,0,1,30.375,12.375Z"/>
      <path id="Path_10" data-name="Path 10" d="M30.375,19.125H5.625A1.128,1.128,0,0,1,4.5,18h0a1.128,1.128,0,0,1,1.125-1.125h24.75A1.128,1.128,0,0,1,31.5,18h0A1.128,1.128,0,0,1,30.375,19.125Z"/>
      <path id="Path_11" data-name="Path 11" d="M30.375,25.875H5.625A1.128,1.128,0,0,1,4.5,24.75h0a1.128,1.128,0,0,1,1.125-1.125h24.75A1.128,1.128,0,0,1,31.5,24.75h0A1.128,1.128,0,0,1,30.375,25.875Z"/>
    </g>
  </g>
</svg>
