<svg xmlns="http://www.w3.org/2000/svg" width="18" height="17.25" viewBox="0 0 18 17.25">
  <g id="icon-cart" transform="translate(0.75 0.75)">
    <path id="Path_3" data-name="Path 3" d="M13.5,30.75a.75.75,0,1,1-.75-.75A.75.75,0,0,1,13.5,30.75Z" transform="translate(-6.75 -15.75)" fill="none" stroke="#1b1b1b" stroke-linecap="round" stroke-linejoin="round" stroke-width="1.5"/>
    <path id="Path_4" data-name="Path 4" d="M30,30.75a.75.75,0,1,1-.75-.75A.75.75,0,0,1,30,30.75Z" transform="translate(-15 -15.75)" fill="none" stroke="#1b1b1b" stroke-linecap="round" stroke-linejoin="round" stroke-width="1.5"/>
    <path id="Path_5" data-name="Path 5" d="M1.5,1.5h3L6.51,11.542a1.5,1.5,0,0,0,1.5,1.208H15.3a1.5,1.5,0,0,0,1.5-1.208L18,5.25H5.25" transform="translate(-1.5 -1.5)" fill="none" stroke="#1b1b1b" stroke-linecap="round" stroke-linejoin="round" stroke-width="1.5"/>
  </g>
</svg>
