<svg xmlns="http://www.w3.org/2000/svg" width="28.159" height="28.159" viewBox="0 0 28.159 28.159">
  <g id="icon-instagram" transform="translate(1.5 1.5)">
    <path id="Path_6" data-name="Path 6" d="M9.29,3h12.58a6.29,6.29,0,0,1,6.29,6.29v12.58a6.29,6.29,0,0,1-6.29,6.29H9.29A6.29,6.29,0,0,1,3,21.869V9.29A6.29,6.29,0,0,1,9.29,3Z" transform="translate(-3 -3)" fill="none" stroke="#fff" stroke-linecap="round" stroke-linejoin="round" stroke-width="3"/>
    <path id="Path_7" data-name="Path 7" d="M22.074,16.229a5.032,5.032,0,1,1-4.239-4.239,5.032,5.032,0,0,1,4.239,4.239Z" transform="translate(-4.463 -4.442)" fill="none" stroke="#fff" stroke-linecap="round" stroke-linejoin="round" stroke-width="3"/>
    <path id="Path_8" data-name="Path 8" d="M26.25,9.75h0" transform="translate(-6.752 -4.089)" fill="none" stroke="#fff" stroke-linecap="round" stroke-linejoin="round" stroke-width="3"/>
  </g>
</svg>
