<svg xmlns="http://www.w3.org/2000/svg" width="30.191" height="24.52" viewBox="0 0 30.191 24.52">
  <path id="icon-twitter" d="M27.087,9.492c.019.268.019.536.019.8,0,8.18-6.226,17.6-17.6,17.6A17.486,17.486,0,0,1,0,25.124a12.8,12.8,0,0,0,1.494.077,12.392,12.392,0,0,0,7.682-2.644,6.2,6.2,0,0,1-5.785-4.291,7.8,7.8,0,0,0,1.169.1,6.544,6.544,0,0,0,1.628-.211,6.188,6.188,0,0,1-4.962-6.073V12a6.232,6.232,0,0,0,2.8.785A6.2,6.2,0,0,1,2.107,4.511a17.588,17.588,0,0,0,12.758,6.475,6.985,6.985,0,0,1-.153-1.418A6.193,6.193,0,0,1,25.421,5.335a12.182,12.182,0,0,0,3.927-1.494,6.171,6.171,0,0,1-2.72,3.41,12.4,12.4,0,0,0,3.563-.958,13.3,13.3,0,0,1-3.1,3.2Z" transform="translate(0 -3.381)" fill="#fff"/>
</svg>
